<?xml version="1.0" encoding="utf-8"?>
<!-- Generator: Adobe Illustrator 16.0.0, SVG Export Plug-In . SVG Version: 6.00 Build 0)  -->
<!DOCTYPE svg PUBLIC "-//W3C//DTD SVG 1.0//EN" "http://www.w3.org/TR/2001/REC-SVG-20010904/DTD/svg10.dtd">
<svg version="1.0" id="Layer_1" xmlns="http://www.w3.org/2000/svg" xmlns:xlink="http://www.w3.org/1999/xlink" x="0px" y="0px"
	 width="1073.259px" height="64.174px" viewBox="0 0 1073.259 64.174" enable-background="new 0 0 1073.259 64.174"
	 xml:space="preserve">
<g>
	<path d="M-0.001,41.368c0-12.552,10.254-22.806,22.983-22.806c8.132,0,15.292,4.154,19.357,10.431l-10.606,7.514
		c-1.769-3.271-4.862-5.48-8.751-5.48c-5.48,0-9.547,4.243-9.547,10.342c0,6.1,4.066,10.342,9.547,10.342
		c3.889,0,6.982-2.209,8.751-5.48l10.606,7.514c-4.065,6.276-11.226,10.431-19.357,10.431C10.253,64.174-0.001,53.92-0.001,41.368z"
		/>
	<path d="M69.299,31.645c-2.74,0-5.922,1.062-8.044,2.917v28.905H47.907V19.27h13.348v3.89c2.476-3.094,5.746-4.597,10.077-4.597
		c1.414,0,3.094,0.177,4.773,0.707v13.878C74.072,32.087,71.598,31.645,69.299,31.645z"/>
	<path d="M79.199,41.368c0-12.994,9.193-22.806,22.807-22.806c11.226,0,21.303,7.337,21.303,21.303c0,1.238-0.089,2.563-0.266,3.89
		H92.017c0.707,5.923,5.657,8.221,9.635,8.221c4.686,0,7.69-2.298,9.459-5.569l10.606,7.16
		c-4.065,6.364-11.226,10.607-19.977,10.607C90.072,64.174,79.199,54.98,79.199,41.368z M110.138,35.977l-0.089-0.53
		c-0.884-4.332-4.685-6.188-8.839-6.188c-3.183,0-7.779,1.415-9.017,6.719H110.138z"/>
	<path d="M149.207,64.174c-13.082,0-21.391-10.695-21.391-22.806s8.309-22.806,21.391-22.806c3.624,0,7.16,1.237,9.724,3.359V19.27
		h13.348v44.197h-13.348v-2.651C156.367,62.937,152.831,64.174,149.207,64.174z M158.931,48.263V34.474
		c-1.768-2.387-4.243-3.713-7.514-3.713c-6.364,0-10.165,4.773-10.165,10.607s3.801,10.607,10.165,10.607
		C154.688,51.976,157.163,50.649,158.931,48.263z"/>
	<path d="M184.299,49.854V30.938h-5.745l-2.917-11.668h8.662v-6.629l13.348-6.63V19.27h13.967l-2.917,11.668h-11.05v15.115
		c0,3.713,1.503,5.216,5.127,5.216h7.248v12.198h-12.198C189.515,63.467,184.299,58.252,184.299,49.854z"/>
	<path d="M224.252,0c4.419,0,7.955,3.535,7.955,7.955c0,1.945-0.619,3.713-1.768,5.039h-12.375
		c-1.149-1.326-1.769-3.094-1.769-5.039C216.296,3.535,219.832,0,224.252,0z M217.533,63.467V19.27h13.437v44.197H217.533z"/>
	<path d="M270.128,19.27h15.38l-25.723,44.904L234.062,19.27h15.381l10.342,19.271L270.128,19.27z"/>
	<path d="M283.297,41.368c0-12.994,9.193-22.806,22.807-22.806c11.226,0,21.303,7.337,21.303,21.303c0,1.238-0.089,2.563-0.266,3.89
		h-31.026c0.707,5.923,5.657,8.221,9.635,8.221c4.686,0,7.69-2.298,9.459-5.569l10.606,7.16
		c-4.065,6.364-11.226,10.607-19.977,10.607C294.17,64.174,283.297,54.98,283.297,41.368z M314.235,35.977l-0.089-0.53
		c-0.884-4.332-4.685-6.188-8.839-6.188c-3.183,0-7.779,1.415-9.017,6.719H314.235z"/>
	<path d="M359.757,0c4.419,0,7.955,3.535,7.955,7.955c0,1.945-0.619,3.713-1.768,5.039h-12.375
		c-1.149-1.326-1.769-3.094-1.769-5.039C351.801,3.535,355.337,0,359.757,0z M353.038,63.467V19.27h13.437v44.197H353.038z"/>
	<path d="M397.411,30.761c-2.563,0-5.746,1.326-7.956,3.801v28.905h-13.348V19.27h13.348v2.652
		c2.652-2.122,6.276-3.359,10.166-3.359c12.463,0,19.27,8.31,19.27,20.242v24.662h-13.348V41.191
		C405.543,35.27,403.245,30.761,397.411,30.761z"/>
	<path d="M447.087,64.174c-13.082,0-21.392-10.695-21.392-22.806s8.31-22.806,21.392-22.806c3.624,0,7.16,1.237,9.724,3.359V0.707
		h13.348v62.76h-13.348v-2.651C454.247,62.937,450.711,64.174,447.087,64.174z M456.811,48.263V34.474
		c-1.768-2.387-4.243-3.713-7.514-3.713c-6.364,0-10.165,4.773-10.165,10.607s3.801,10.607,10.165,10.607
		C452.567,51.976,455.043,50.649,456.811,48.263z"/>
	<path d="M508.786,60.196c-2.652,2.475-6.807,3.978-10.52,3.978c-11.933,0-18.916-8.221-18.916-20.242V19.27h13.348v22.275
		c0,6.011,2.475,10.431,7.778,10.431c3.271,0,6.541-1.591,8.31-4.508V19.27h13.347v44.197h-13.347V60.196z"/>
	<path d="M544.85,64.174c-7.69,0-13.967-2.74-17.768-9.37l10.165-6.895c1.769,3.183,4.155,5.393,8.133,5.393
		c1.856,0,3.447-0.442,3.447-2.033c0-1.68-1.237-2.21-5.569-3.89l-2.298-0.884c-7.69-3.006-11.668-7.955-11.668-14.231
		c0-8.132,6.718-13.701,15.204-13.701c5.657,0,10.607,2.121,13.966,6.983l-7.602,7.514c-1.68-2.387-3.624-3.979-6.364-3.979
		c-1.769,0-3.183,0.619-3.183,2.033c0,1.769,1.414,2.299,5.834,3.978l1.856,0.708c8.397,3.182,11.845,7.778,11.845,14.319
		C560.849,59.136,553.865,64.174,544.85,64.174z"/>
	<path d="M570.04,49.854V30.938h-5.745l-2.917-11.668h8.662v-6.629l13.348-6.63V19.27h13.967l-2.917,11.668h-11.05v15.115
		c0,3.713,1.503,5.216,5.127,5.216h7.248v12.198h-12.198C575.256,63.467,570.04,58.252,570.04,49.854z"/>
	<path d="M624.667,31.645c-2.74,0-5.922,1.062-8.044,2.917v28.905h-13.348V19.27h13.348v3.89c2.476-3.094,5.746-4.597,10.077-4.597
		c1.414,0,3.094,0.177,4.773,0.707v13.878C629.44,32.087,626.966,31.645,624.667,31.645z"/>
	<path d="M643.849,0c4.419,0,7.955,3.535,7.955,7.955c0,1.945-0.619,3.713-1.768,5.039h-12.375
		c-1.149-1.326-1.769-3.094-1.769-5.039C635.893,3.535,639.429,0,643.849,0z M637.13,63.467V19.27h13.437v44.197H637.13z"/>
	<path d="M657.637,41.368c0-12.994,9.193-22.806,22.807-22.806c11.226,0,21.303,7.337,21.303,21.303c0,1.238-0.089,2.563-0.266,3.89
		h-31.026c0.707,5.923,5.657,8.221,9.635,8.221c4.686,0,7.69-2.298,9.459-5.569l10.606,7.16
		c-4.065,6.364-11.226,10.607-19.977,10.607C668.51,64.174,657.637,54.98,657.637,41.368z M688.575,35.977l-0.089-0.53
		c-0.884-4.332-4.685-6.188-8.839-6.188c-3.183,0-7.779,1.415-9.017,6.719H688.575z"/>
	<path d="M722.519,64.174c-7.69,0-13.967-2.74-17.768-9.37l10.165-6.895c1.769,3.183,4.155,5.393,8.133,5.393
		c1.856,0,3.447-0.442,3.447-2.033c0-1.68-1.237-2.21-5.569-3.89l-2.298-0.884c-7.69-3.006-11.668-7.955-11.668-14.231
		c0-8.132,6.718-13.701,15.204-13.701c5.657,0,10.607,2.121,13.966,6.983l-7.602,7.514c-1.68-2.387-3.624-3.979-6.364-3.979
		c-1.769,0-3.183,0.619-3.183,2.033c0,1.769,1.414,2.299,5.834,3.978l1.856,0.708c8.397,3.182,11.845,7.778,11.845,14.319
		C738.518,59.136,731.534,64.174,722.519,64.174z"/>
	<path d="M765.829,30.938h-5.746V19.27h6.453c-1.68-1.944-2.74-4.508-2.74-7.337c0-6.275,4.597-11.226,11.934-11.226h13.7v11.668
		h-8.662c-3.094,0-4.331,1.503-4.331,3.447s1.502,3.447,3.447,3.447h9.546v11.668h-10.253v32.529h-13.348V30.938z"/>
	<path d="M823.993,60.196c-2.652,2.475-6.807,3.978-10.52,3.978c-11.933,0-18.916-8.221-18.916-20.242V19.27h13.348v22.275
		c0,6.011,2.475,10.431,7.778,10.431c3.271,0,6.541-1.591,8.31-4.508V19.27h13.347v44.197h-13.347V60.196z"/>
	<path d="M868.276,30.761c-2.563,0-5.746,1.326-7.956,3.801v28.905h-13.348V19.27h13.348v2.652
		c2.652-2.122,6.276-3.359,10.166-3.359c12.463,0,19.27,8.31,19.27,20.242v24.662h-13.348V41.191
		C876.408,35.27,874.11,30.761,868.276,30.761z"/>
	<path d="M917.952,64.174c-13.082,0-21.392-10.695-21.392-22.806s8.31-22.806,21.392-22.806c3.624,0,7.16,1.237,9.724,3.359V0.707
		h13.348v62.76h-13.348v-2.651C925.112,62.937,921.576,64.174,917.952,64.174z M927.676,48.263V34.474
		c-1.768-2.387-4.243-3.713-7.514-3.713c-6.364,0-10.165,4.773-10.165,10.607s3.801,10.607,10.165,10.607
		C923.433,51.976,925.908,50.649,927.676,48.263z"/>
	<path d="M1023.67,64.174l-39.601-33.501v32.794h-14.143V0l39.601,33.501V0.707h14.143V64.174z"/>
	<path d="M1034.719,0.707h14.231v48.705h24.308v14.055h-38.539V0.707z"/>
</g>
</svg>
